<svg width="18" height="18" viewBox="0 0 18 18" fill="none" xmlns="http://www.w3.org/2000/svg">
<g id="arrow-right-short 1">
<path id="Vector" fill-rule="evenodd" clip-rule="evenodd" d="M4.5 8.99998C4.5 8.85079 4.55926 8.70772 4.66475 8.60223C4.77024 8.49674 4.91332 8.43748 5.0625 8.43748H11.5796L9.16425 6.02323C9.05863 5.91761 8.99929 5.77435 8.99929 5.62498C8.99929 5.47561 9.05863 5.33235 9.16425 5.22673C9.26987 5.12111 9.41313 5.06177 9.5625 5.06177C9.71187 5.06177 9.85513 5.12111 9.96075 5.22673L13.3358 8.60173C13.3881 8.65398 13.4297 8.71605 13.4581 8.78439C13.4864 8.85273 13.501 8.92599 13.501 8.99998C13.501 9.07397 13.4864 9.14723 13.4581 9.21557C13.4297 9.2839 13.3881 9.34598 13.3358 9.39823L9.96075 12.7732C9.85513 12.8789 9.71187 12.9382 9.5625 12.9382C9.41313 12.9382 9.26987 12.8789 9.16425 12.7732C9.05863 12.6676 8.99929 12.5244 8.99929 12.375C8.99929 12.2256 9.05863 12.0824 9.16425 11.9767L11.5796 9.56248H5.0625C4.91332 9.56248 4.77024 9.50322 4.66475 9.39773C4.55926 9.29224 4.5 9.14916 4.5 8.99998Z" fill="#FD746C"/>
</g>
</svg>
