<svg width="172" height="66" viewBox="0 0 172 66" fill="none" xmlns="http://www.w3.org/2000/svg">
<g clip-path="url(#clip0_307_63)">
<path d="M45.6987 47.2516C45.5829 47.0353 45.5006 46.8702 45.4074 46.7115C44.8079 45.6899 44.207 44.6692 43.6046 43.6494C41.8641 40.7084 40.1012 37.7805 38.3875 34.8241C37.3249 32.9909 37.3666 31.1247 38.436 29.2898C38.6119 28.9881 38.8048 28.6962 38.9824 28.3953C41.1508 24.7143 43.3182 21.0329 45.4845 17.3511C45.5761 17.195 45.6574 17.0332 45.7977 16.7732L63.8558 16.7319C63.8208 16.8763 63.7568 17.012 63.6677 17.1308C62.1553 19.3027 60.9671 21.6697 59.6398 23.9535C58.4494 26.0028 57.2709 28.0591 56.1044 30.1222C55.3618 31.4289 55.3455 32.7614 56.0922 34.0644C58.1414 37.6378 60.2029 41.2035 62.2766 44.7616C62.7163 45.5158 63.2149 46.2368 63.7089 46.9573C63.7957 47.0743 63.8543 47.2098 63.8804 47.3531L45.6987 47.2516Z" fill="#FD746C"/>
<path d="M45.6987 47.2516C45.5829 47.0353 45.5006 46.8702 45.4074 46.7115C44.8079 45.6899 44.207 44.6692 43.6046 43.6494C41.8641 40.7084 40.1012 37.7805 38.3875 34.8241C37.3249 32.9909 37.3666 31.1247 38.436 29.2898C38.6119 28.9881 38.8048 28.6962 38.9824 28.3953C41.1508 24.7143 43.3182 21.0329 45.4845 17.3511C45.5761 17.195 45.6574 17.0332 45.7977 16.7732L63.8558 16.7319C63.8208 16.8763 63.7568 17.012 63.6677 17.1308C62.1553 19.3027 60.9671 21.6697 59.6398 23.9535C58.4494 26.0028 57.2709 28.0591 56.1044 30.1222C55.3618 31.4289 55.3455 32.7614 56.0922 34.0644C58.1414 37.6378 60.2029 41.2035 62.2766 44.7616C62.7163 45.5158 63.2149 46.2368 63.7089 46.9573C63.7957 47.0743 63.8543 47.2098 63.8804 47.3531L45.6987 47.2516Z" fill="url(#paint0_linear_307_63)"/>
<path d="M27.9793 63.8968C25.3468 63.8968 23.2139 63.8968 21.2688 63.8941C20.4531 63.9046 19.6443 63.7429 18.8952 63.4194C18.1503 63.0812 17.4937 62.5751 16.9767 61.9408C16.7933 61.7152 16.6285 61.4752 16.4839 61.223C13.2688 55.7683 10.0216 50.2603 6.88207 44.9326L6.74488 44.6997C4.95194 41.6579 3.15892 38.616 1.36584 35.574C1.299 35.4604 1.22474 35.3484 1.15315 35.24C1.07744 35.1255 0.999259 35.0074 0.929326 34.8871C-0.15164 33.0295 -0.165874 31.172 0.888068 29.3672C1.9286 27.5836 3.00152 25.779 4.03937 24.0338V24.0325C4.68589 22.945 5.35469 21.8206 6.01028 20.7096C8.64792 16.2425 11.3248 11.6987 13.9145 7.30478L13.9222 7.29177L16.2291 3.37748C16.278 3.29492 16.3246 3.20823 16.3698 3.12485C16.415 3.04147 16.4626 2.95334 16.5124 2.86933C17.5927 1.0417 19.1853 0.113331 21.2457 0.110648C25.2028 0.105694 29.3371 0.103424 33.8846 0.103424C40.2148 0.103424 46.4568 0.108171 51.7288 0.112712C52.2815 0.109447 52.8324 0.175457 53.3688 0.309201C54.3664 0.55971 55.2648 1.10657 55.9458 1.87781C56.3148 2.29601 56.6308 2.75827 56.8864 3.25405C59.2421 7.74749 61.6557 12.2686 63.706 16.0983C63.8018 16.2627 63.8543 16.4488 63.8587 16.639C63.8587 16.6427 63.8587 16.6749 63.8587 16.7348H45.4525V16.7472H45.1099C44.1643 16.7453 43.2405 16.7451 42.4615 16.7451H39.9046C37.375 16.7451 34.4356 16.7422 31.5623 16.7067H31.4648C30.5883 16.6737 29.7193 16.8793 28.9505 17.3015C28.5946 17.5119 28.2764 17.7804 28.009 18.0958C27.7135 18.4492 27.4703 18.8433 27.287 19.266C27.2709 19.3021 27.2504 19.3374 27.2325 19.3692L25.7022 22.0453L25.6496 22.1374C24.1658 24.7324 22.6314 27.416 21.1147 30.0644C20.7481 30.6745 20.5476 31.37 20.533 32.0817C20.5413 32.7919 20.7379 33.4871 21.1028 34.0964C21.6478 35.0493 22.2103 36.0134 22.7543 36.9446V36.9461V36.9473C23.1219 37.577 23.5019 38.2284 23.8732 38.8703C24.1969 39.4301 24.5282 39.9966 24.8486 40.5444C25.6919 41.9865 26.5639 43.4775 27.3709 44.9712C27.7321 45.6922 28.2815 46.3021 28.9608 46.7363C29.2859 46.9335 29.6385 47.0813 30.0071 47.1748C30.4088 47.2746 30.8213 47.3236 31.2352 47.3206H31.2599C34.5465 47.3071 37.8885 47.2956 41.1206 47.2842H41.1413L45.0257 47.2706V47.2725H63.8721C63.8721 47.3047 63.8733 47.3257 63.8739 47.3303C63.8831 47.5086 63.8364 47.6854 63.7403 47.8359C62.6263 49.9205 61.5022 52.0396 60.4157 54.0883L60.4118 54.0957C59.2138 56.3547 57.9748 58.6905 56.7474 60.9829C56.3084 61.8796 55.6196 62.6302 54.7641 63.1444C53.9086 63.6585 52.9228 63.9143 51.9253 63.8809C50.0103 63.8886 47.9295 63.8921 45.3764 63.8921C43.9002 63.8921 42.4116 63.8908 40.9719 63.8898H40.9046C39.4831 63.8888 38.0133 63.8875 36.5678 63.8875V63.8958H32.2738L27.9793 63.8968Z" fill="#FD746C"/>
<path d="M45.4515 16.7471H45.1091C44.1954 16.7453 43.2962 16.7451 42.4607 16.7451H40.4799L31.1044 0.103394H33.8846C40.1335 0.103394 46.4114 0.108141 51.7287 0.112888C52.2815 0.10949 52.8325 0.175502 53.3688 0.309377C54.3663 0.55997 55.2647 1.10682 55.9458 1.87798C56.3148 2.29618 56.6306 2.75844 56.8862 3.25423C59.2357 7.7357 61.6516 12.262 63.7058 16.0984C63.8015 16.2629 63.854 16.4489 63.8585 16.6392C63.8585 16.6427 63.8585 16.6739 63.8585 16.735H45.4515V16.7469V16.7471Z" fill="url(#paint1_linear_307_63)"/>
<path d="M31.0895 63.8966L40.3774 47.2873L41.1227 47.2846H41.1433L43.0825 47.2778H43.2409L45.028 47.2714V47.2733H63.8731C63.8731 47.3051 63.8744 47.3263 63.875 47.3311C63.8842 47.5094 63.8375 47.6862 63.7413 47.8367C62.6255 49.9244 61.5026 52.0416 60.4167 54.0891L60.4128 54.0965L60.4017 54.1172V54.1184C59.2074 56.37 57.9726 58.6983 56.7491 60.9835C56.31 61.8802 55.6213 62.6308 54.7658 63.145C53.9103 63.6592 52.9245 63.9149 51.927 63.8815C50.0147 63.8892 47.9338 63.8927 45.3781 63.8927C43.8478 63.8927 42.254 63.8914 40.9734 63.8904H40.902C39.6364 63.8904 38.0614 63.8881 36.5699 63.8881V63.8964H35.394H32.5361H31.092L31.0895 63.8966Z" fill="url(#paint2_linear_307_63)"/>
</g>
<path d="M92.851 9.35V9.312C92.851 8.37467 92.68 7.507 92.338 6.709C91.996 5.89833 91.5083 5.19533 90.875 4.6C90.2543 4.00467 89.507 3.54233 88.633 3.213C87.7717 2.871 86.8217 2.7 85.783 2.7H80.596V16H85.783C86.8217 16 87.7717 15.829 88.633 15.487C89.507 15.145 90.2543 14.6763 90.875 14.081C91.5083 13.4857 91.996 12.7827 92.338 11.972C92.68 11.1613 92.851 10.2873 92.851 9.35ZM89.792 9.388C89.792 9.98333 89.6907 10.5217 89.488 11.003C89.298 11.4843 89.0257 11.9023 88.671 12.257C88.329 12.6117 87.911 12.884 87.417 13.074C86.923 13.264 86.3783 13.359 85.783 13.359H83.522V5.341H85.783C86.3783 5.341 86.923 5.44233 87.417 5.645C87.911 5.835 88.329 6.10733 88.671 6.462C89.0257 6.81667 89.298 7.241 89.488 7.735C89.6907 8.229 89.792 8.76733 89.792 9.35V9.388ZM100.588 5.208L97.4153 8.4L97.8713 10.262H99.0873C99.9233 10.262 100.563 10.4077 101.006 10.699C101.462 10.9903 101.69 11.4147 101.69 11.972C101.69 12.4787 101.513 12.8777 101.158 13.169C100.816 13.4603 100.367 13.606 99.8093 13.606C99.1253 13.606 98.53 13.473 98.0233 13.207C97.5293 12.9283 97.0543 12.5293 96.5983 12.01L94.5843 13.929C95.1543 14.613 95.8573 15.1703 96.6933 15.601C97.542 16.019 98.568 16.228 99.7713 16.228C100.506 16.228 101.171 16.1203 101.766 15.905C102.362 15.6897 102.862 15.3857 103.267 14.993C103.685 14.6003 104.002 14.138 104.217 13.606C104.445 13.074 104.559 12.4913 104.559 11.858C104.559 11.2373 104.458 10.7117 104.255 10.281C104.053 9.83767 103.787 9.47033 103.457 9.179C103.128 8.875 102.748 8.64067 102.317 8.476C101.887 8.31133 101.443 8.191 100.987 8.115L104.35 4.904V2.7H95.3633V5.208H100.588ZM93.896 38V24.7H90.742L87.246 30.324L83.75 24.7H80.596V38H83.465V29.374L87.17 34.998H87.246L90.989 29.317V38H93.896ZM100.15 38V24.7H97.2241V38H100.15ZM113.088 34.067V34.029C113.088 33.4463 112.993 32.946 112.803 32.528C112.626 32.11 112.353 31.749 111.986 31.445C111.631 31.1283 111.188 30.8623 110.656 30.647C110.137 30.419 109.541 30.2163 108.87 30.039C108.3 29.887 107.825 29.754 107.445 29.64C107.078 29.526 106.786 29.4057 106.571 29.279C106.356 29.1523 106.204 29.013 106.115 28.861C106.039 28.6963 106.001 28.5063 106.001 28.291V28.253C106.001 27.9237 106.14 27.6513 106.419 27.436C106.71 27.208 107.141 27.094 107.711 27.094C108.281 27.094 108.851 27.2143 109.421 27.455C109.991 27.683 110.574 27.9997 111.169 28.405L112.689 26.201C112.005 25.6563 111.251 25.2383 110.428 24.947C109.617 24.6557 108.724 24.51 107.749 24.51C107.065 24.51 106.438 24.605 105.868 24.795C105.298 24.985 104.804 25.2573 104.386 25.612C103.981 25.9667 103.664 26.391 103.436 26.885C103.208 27.3663 103.094 27.911 103.094 28.519V28.557C103.094 29.2157 103.195 29.7667 103.398 30.21C103.613 30.6533 103.911 31.027 104.291 31.331C104.671 31.6223 105.133 31.8693 105.678 32.072C106.223 32.2747 106.831 32.4583 107.502 32.623C108.059 32.7623 108.509 32.8953 108.851 33.022C109.206 33.1487 109.478 33.2753 109.668 33.402C109.871 33.5287 110.004 33.668 110.067 33.82C110.143 33.9593 110.181 34.124 110.181 34.314V34.352C110.181 34.7447 110.01 35.055 109.668 35.283C109.339 35.4983 108.87 35.606 108.262 35.606C107.502 35.606 106.799 35.4603 106.153 35.169C105.52 34.8777 104.899 34.485 104.291 33.991L102.562 36.062C103.36 36.784 104.247 37.3223 105.222 37.677C106.197 38.019 107.192 38.19 108.205 38.19C108.927 38.19 109.586 38.1013 110.181 37.924C110.776 37.734 111.289 37.468 111.72 37.126C112.151 36.7713 112.486 36.3407 112.727 35.834C112.968 35.3147 113.088 34.7257 113.088 34.067ZM125.697 27.398V24.7H114.677V27.398H118.724V38H121.65V27.398H125.697ZM139.728 24.7H136.403L133.173 30.039L130 24.7H126.58L131.691 32.756V38H134.617V32.699L139.728 24.7ZM91.122 51.336V51.298C91.122 50.614 91.0017 49.9933 90.761 49.436C90.533 48.866 90.1973 48.3783 89.754 47.973C89.3233 47.5677 88.7913 47.2573 88.158 47.042C87.5373 46.814 86.828 46.7 86.03 46.7H80.596V60H83.522V56.01H85.745C86.4923 56.01 87.189 55.915 87.835 55.725C88.4937 55.5223 89.0637 55.2247 89.545 54.832C90.039 54.4393 90.4253 53.9517 90.704 53.369C90.9827 52.7863 91.122 52.1087 91.122 51.336ZM88.158 51.393C88.158 51.963 87.9553 52.4443 87.55 52.837C87.1447 53.217 86.5747 53.407 85.84 53.407H83.522V49.341H85.783C86.5177 49.341 87.094 49.512 87.512 49.854C87.9427 50.196 88.158 50.6963 88.158 51.355V51.393ZM104.782 60L101.533 55.25C102.382 54.9333 103.066 54.4393 103.585 53.768C104.117 53.084 104.383 52.2037 104.383 51.127V51.089C104.383 49.7083 103.94 48.6317 103.053 47.859C102.179 47.0863 100.951 46.7 99.3674 46.7H93.2874V60H96.2134V55.744H98.5124L101.362 60H104.782ZM101.419 51.279C101.419 51.849 101.223 52.305 100.83 52.647C100.45 52.989 99.8994 53.16 99.1774 53.16H96.2134V49.341H99.1204C99.8424 49.341 100.406 49.4993 100.811 49.816C101.217 50.1327 101.419 50.6077 101.419 51.241V51.279ZM120.565 53.35V53.312C120.565 52.362 120.388 51.4753 120.033 50.652C119.691 49.816 119.203 49.094 118.57 48.486C117.949 47.8653 117.208 47.3777 116.347 47.023C115.486 46.6557 114.542 46.472 113.516 46.472C112.49 46.472 111.54 46.6557 110.666 47.023C109.805 47.3777 109.057 47.8717 108.424 48.505C107.803 49.1257 107.316 49.854 106.961 50.69C106.606 51.5133 106.429 52.4 106.429 53.35V53.388C106.429 54.338 106.6 55.231 106.942 56.067C107.297 56.8903 107.784 57.6123 108.405 58.233C109.038 58.841 109.786 59.3287 110.647 59.696C111.508 60.0507 112.452 60.228 113.478 60.228C114.504 60.228 115.448 60.0507 116.309 59.696C117.183 59.3287 117.93 58.8347 118.551 58.214C119.184 57.5807 119.678 56.8523 120.033 56.029C120.388 55.193 120.565 54.3 120.565 53.35ZM117.506 53.388C117.506 53.958 117.405 54.4963 117.202 55.003C117.012 55.497 116.74 55.934 116.385 56.314C116.043 56.694 115.625 56.9917 115.131 57.207C114.637 57.4223 114.099 57.53 113.516 57.53C112.921 57.53 112.376 57.4223 111.882 57.207C111.401 56.979 110.976 56.675 110.609 56.295C110.254 55.915 109.976 55.4717 109.773 54.965C109.583 54.4583 109.488 53.92 109.488 53.35V53.312C109.488 52.742 109.583 52.21 109.773 51.716C109.976 51.2093 110.248 50.766 110.59 50.386C110.945 50.006 111.363 49.7083 111.844 49.493C112.338 49.2777 112.883 49.17 113.478 49.17C114.061 49.17 114.599 49.284 115.093 49.512C115.587 49.7273 116.011 50.025 116.366 50.405C116.733 50.785 117.012 51.2283 117.202 51.735C117.405 52.2417 117.506 52.78 117.506 53.35V53.388ZM130.893 55.402V46.7H127.891V55.269C127.891 56.0417 127.733 56.6053 127.416 56.96C127.1 57.302 126.663 57.473 126.105 57.473C125.637 57.473 125.206 57.359 124.813 57.131C124.433 56.8903 124.053 56.561 123.673 56.143L121.83 58.195C122.286 58.7397 122.863 59.2083 123.559 59.601C124.269 59.9937 125.143 60.19 126.181 60.19C126.878 60.19 127.518 60.095 128.1 59.905C128.683 59.7023 129.177 59.4047 129.582 59.012C130 58.6067 130.323 58.1063 130.551 57.511C130.779 56.9157 130.893 56.2127 130.893 55.402ZM144.012 60V57.397H136.792V54.604H143.062V52.001H136.792V49.303H143.917V46.7H133.885V60H144.012ZM158.299 57.853L156.437 55.972C155.917 56.4533 155.392 56.8333 154.86 57.112C154.34 57.3907 153.701 57.53 152.941 57.53C152.371 57.53 151.845 57.4223 151.364 57.207C150.895 56.979 150.49 56.675 150.148 56.295C149.818 55.915 149.559 55.4717 149.369 54.965C149.179 54.4583 149.084 53.92 149.084 53.35V53.312C149.084 52.742 149.179 52.21 149.369 51.716C149.559 51.2093 149.825 50.766 150.167 50.386C150.509 50.006 150.914 49.7083 151.383 49.493C151.864 49.2777 152.383 49.17 152.941 49.17C153.612 49.17 154.214 49.303 154.746 49.569C155.29 49.835 155.822 50.2023 156.342 50.671L158.204 48.524C157.9 48.22 157.57 47.9413 157.216 47.688C156.861 47.4347 156.475 47.2193 156.057 47.042C155.639 46.8647 155.17 46.7253 154.651 46.624C154.144 46.5227 153.58 46.472 152.96 46.472C151.934 46.472 150.996 46.6557 150.148 47.023C149.299 47.3777 148.571 47.8717 147.963 48.505C147.355 49.1257 146.88 49.854 146.538 50.69C146.196 51.5133 146.025 52.4 146.025 53.35V53.388C146.025 54.338 146.196 55.231 146.538 56.067C146.88 56.903 147.355 57.6313 147.963 58.252C148.571 58.86 149.293 59.3413 150.129 59.696C150.965 60.0507 151.87 60.228 152.846 60.228C153.492 60.228 154.074 60.171 154.594 60.057C155.113 59.9557 155.588 59.8037 156.019 59.601C156.462 59.3857 156.867 59.1323 157.235 58.841C157.602 58.5497 157.957 58.2203 158.299 57.853ZM170.711 49.398V46.7H159.691V49.398H163.738V60H166.664V49.398H170.711Z" fill="#CED4DA"/>
<defs>
<linearGradient id="paint0_linear_307_63" x1="50.7461" y1="16.7319" x2="50.7461" y2="47.3531" gradientUnits="userSpaceOnUse">
<stop stop-opacity="0.271"/>
<stop offset="0.207" stop-opacity="0.051"/>
<stop offset="0.498" stop-opacity="0.051"/>
<stop offset="0.798" stop-opacity="0.051"/>
<stop offset="1" stop-opacity="0.275"/>
</linearGradient>
<linearGradient id="paint1_linear_307_63" x1="60.059" y1="9.40725" x2="55.2567" y2="17.8676" gradientUnits="userSpaceOnUse">
<stop stop-opacity="0.133"/>
<stop offset="1" stop-opacity="0"/>
</linearGradient>
<linearGradient id="paint2_linear_307_63" x1="47.4828" y1="50.397" x2="52.8498" y2="59.4692" gradientUnits="userSpaceOnUse">
<stop stop-opacity="0"/>
<stop offset="1" stop-opacity="0.129"/>
</linearGradient>
<clipPath id="clip0_307_63">
<rect width="64" height="64" fill="white"/>
</clipPath>
</defs>
</svg>
