<svg width="18" height="18" viewBox="0 0 18 18" fill="none" xmlns="http://www.w3.org/2000/svg">
<g id="arrow-right-short 1">
<path id="Vector" fill-rule="evenodd" clip-rule="evenodd" d="M4.5 9.00001C4.5 8.85082 4.55926 8.70775 4.66475 8.60226C4.77024 8.49677 4.91332 8.43751 5.0625 8.43751H11.5796L9.16425 6.02326C9.05863 5.91764 8.99929 5.77438 8.99929 5.62501C8.99929 5.47564 9.05863 5.33238 9.16425 5.22676C9.26987 5.12114 9.41313 5.0618 9.5625 5.0618C9.71187 5.0618 9.85513 5.12114 9.96075 5.22676L13.3358 8.60176C13.3881 8.65401 13.4297 8.71608 13.4581 8.78442C13.4864 8.85276 13.501 8.92602 13.501 9.00001C13.501 9.074 13.4864 9.14726 13.4581 9.2156C13.4297 9.28393 13.3881 9.34601 13.3358 9.39826L9.96075 12.7733C9.85513 12.8789 9.71187 12.9382 9.5625 12.9382C9.41313 12.9382 9.26987 12.8789 9.16425 12.7733C9.05863 12.6676 8.99929 12.5244 8.99929 12.375C8.99929 12.2256 9.05863 12.0824 9.16425 11.9768L11.5796 9.56251H5.0625C4.91332 9.56251 4.77024 9.50325 4.66475 9.39776C4.55926 9.29227 4.5 9.14919 4.5 9.00001Z" fill="white"/>
</g>
</svg>
