<?xml version="1.0" standalone="no"?>
<!DOCTYPE svg PUBLIC "-//W3C//DTD SVG 20010904//EN"
 "http://www.w3.org/TR/2001/REC-SVG-20010904/DTD/svg10.dtd">
<svg version="1.0" xmlns="http://www.w3.org/2000/svg"
 width="588.000000pt" height="588.000000pt" viewBox="0 0 588.000000 588.000000"
 preserveAspectRatio="xMidYMid meet">
<metadata>
Created by potrace 1.14, written by Peter Selinger 2001-2017
</metadata>
<g transform="translate(0.000000,588.000000) scale(0.100000,-0.100000)"
fill="#000000" stroke="none">
<path d="M1875 5858 c-32 -4 -75 -13 -94 -19 -43 -15 -128 -63 -160 -92 -38
-36 -105 -127 -150 -207 -23 -41 -57 -100 -75 -130 -89 -151 -214 -363 -255
-433 -25 -43 -57 -98 -71 -121 -36 -61 -490 -828 -501 -846 -21 -35 -281 -475
-349 -590 -40 -69 -90 -153 -111 -186 -109 -177 -130 -340 -64 -489 13 -31 49
-97 80 -148 31 -51 60 -99 65 -107 18 -30 130 -220 250 -425 68 -115 141 -239
163 -275 22 -36 48 -79 57 -96 10 -17 64 -110 121 -205 56 -96 111 -190 122
-209 10 -19 23 -39 27 -45 4 -5 19 -30 32 -55 14 -25 76 -130 138 -235 62
-104 185 -314 274 -465 128 -219 173 -286 220 -332 64 -63 149 -110 237 -130
79 -18 2968 -17 3054 2 108 23 209 86 273 172 33 45 153 265 524 968 28 52 61
113 73 135 129 230 127 218 56 324 -48 70 -406 678 -507 858 -14 26 -52 93
-84 148 -94 163 -96 168 -110 224 -25 104 0 187 113 386 44 76 129 225 142
247 93 160 223 388 268 468 17 30 37 67 46 82 9 14 31 52 50 85 19 32 56 90
82 130 52 76 62 120 36 158 -8 11 -38 65 -67 120 -29 55 -67 127 -85 160 -18
33 -56 105 -85 160 -29 55 -61 114 -70 130 -10 17 -46 84 -80 150 -262 503
-274 524 -332 586 -51 54 -118 96 -204 125 l-79 28 -1455 0 c-800 1 -1482 -2
-1515 -6z m2325 -1527 c-1 -10 -69 -128 -330 -570 -270 -457 -274 -463 -333
-565 -55 -94 -79 -169 -82 -258 -5 -142 10 -173 500 -993 56 -93 105 -177 108
-185 4 -8 25 -44 47 -79 22 -34 40 -66 40 -70 0 -3 9 -17 20 -31 11 -14 20
-30 20 -37 0 -9 -108 -12 -437 -13 -1030 -4 -966 -6 -1055 33 -91 41 -144 98
-225 247 -60 110 -235 414 -345 601 -139 234 -205 352 -221 394 -22 58 -27
160 -9 221 6 22 95 186 198 365 102 178 198 347 213 374 25 44 46 80 132 232
12 21 42 74 66 118 68 123 142 184 258 211 51 11 1435 16 1435 5z"/>
</g>
</svg>
