<svg width="22" height="22" viewBox="0 0 22 22" fill="none" xmlns="http://www.w3.org/2000/svg">
<g id="youtube 1" clip-path="url(#clip0_336_4)">
<path id="Vector" d="M11.0701 2.74854H11.1925C12.3228 2.75266 18.0496 2.79391 19.5938 3.20916C20.0606 3.33589 20.4859 3.58292 20.8273 3.92555C21.1688 4.26818 21.4143 4.69441 21.5394 5.16166C21.6782 5.68416 21.7759 6.37579 21.8419 7.08941L21.8556 7.23241L21.8859 7.58991L21.8969 7.73291C21.9862 8.98966 21.9972 10.1667 21.9986 10.4238V10.5269C21.9972 10.7937 21.9849 12.0504 21.8859 13.3594L21.8749 13.5038L21.8625 13.6468C21.7937 14.4333 21.692 15.2143 21.5394 15.789C21.4147 16.2565 21.1693 16.6829 20.8278 17.0256C20.4863 17.3683 20.0607 17.6152 19.5938 17.7415C17.9988 18.1705 11.9364 18.2008 11.0962 18.2022H10.901C10.4761 18.2022 8.71887 18.1939 6.87637 18.1307L6.64262 18.1224L6.523 18.1169L6.28788 18.1073L6.05275 18.0977C4.5265 18.0303 3.07313 17.9217 2.4035 17.7402C1.93667 17.6139 1.51121 17.3672 1.16975 17.0248C0.828277 16.6824 0.582789 16.2562 0.457875 15.789C0.30525 15.2157 0.2035 14.4333 0.13475 13.6468L0.12375 13.5024L0.11275 13.3594C0.0448904 12.4277 0.00728732 11.4941 0 10.5599L0 10.3908C0.00275 10.0952 0.01375 9.07353 0.088 7.94603L0.097625 7.80441L0.10175 7.73291L0.11275 7.58991L0.143 7.23241L0.15675 7.08941C0.22275 6.37579 0.320375 5.68279 0.45925 5.16166C0.583954 4.69423 0.829348 4.26779 1.17083 3.9251C1.51231 3.58241 1.93788 3.33551 2.40488 3.20916C3.0745 3.03041 4.52787 2.92041 6.05412 2.85166L6.28788 2.84204L6.52437 2.83379L6.64262 2.82966L6.87775 2.82004C8.18635 2.77793 9.49548 2.75455 10.8047 2.74991H11.0701V2.74854ZM8.8 7.16229V13.787L14.5159 10.476L8.8 7.16229Z" fill="white"/>
</g>
<defs>
<clipPath id="clip0_336_4">
<rect width="22" height="22" fill="white"/>
</clipPath>
</defs>
</svg>
