<svg width="25" height="22" viewBox="0 0 25 22" fill="none" xmlns="http://www.w3.org/2000/svg">
<g id="deezer 1" clip-path="url(#clip0_337_8)">
<path id="Vector" d="M19.3987 10.5148H24.75V7.39055H19.3987V10.5148ZM19.3987 3.04297V6.16551H24.75V3.04297H19.3987ZM19.3987 14.862H24.75V11.739H19.3987V14.862ZM0 19.2108H5.35133V16.0883H0V19.2108ZM6.46551 19.2108H11.8164V16.0883H6.46551V19.2108ZM12.9332 19.2108H18.2845V16.0883H12.9336L12.9332 19.2108ZM19.3987 19.2108H24.75V16.0883H19.3987V19.2108ZM12.9336 14.862H18.2845V11.739H12.9336V14.862ZM6.46594 14.862H11.8164V11.739H6.46551L6.46594 14.862ZM6.46594 10.5148H11.8164V7.39055H6.46551L6.46594 10.5148Z" fill="white"/>
</g>
<defs>
<clipPath id="clip0_337_8">
<rect width="24.75" height="22" fill="white"/>
</clipPath>
</defs>
</svg>
