<svg width="26" height="26" viewBox="0 0 26 26" fill="none" xmlns="http://www.w3.org/2000/svg">
<g id="icons8-amazon-music 1">
<path id="Vector" d="M22.75 7.58333V9.75H3.25V7.58333C3.25 5.18917 5.18917 3.25 7.58333 3.25H18.4167C20.8108 3.25 22.75 5.18917 22.75 7.58333Z" fill="#4400FF"/>
<path id="Vector_2" d="M22.75 16.25V18.4167C22.75 20.8108 20.8108 22.75 18.4167 22.75H7.58333C5.18917 22.75 3.25 20.8108 3.25 18.4167V16.25H22.75Z" fill="#331799"/>
<path id="Vector_3" d="M22.75 9.75H3.25V16.25H22.75V9.75Z" fill="#3D09D7"/>
<path id="Vector_4" d="M19.4903 15.7083C18.9833 15.7083 18.381 15.8345 17.9374 16.1508C17.8106 16.2456 17.8106 16.3718 17.9693 16.3718C18.4763 16.3084 19.6176 16.1508 19.8391 16.4352C20.0293 16.6881 19.6171 17.7628 19.4269 18.2682C19.3636 18.4263 19.4903 18.4578 19.6171 18.363C20.4729 17.636 20.6944 16.1503 20.5363 15.9607C20.4409 15.803 19.9973 15.7083 19.4903 15.7083Z" fill="white"/>
<path id="Vector_5" d="M5.49798 16.1416C6.4784 16.7553 7.46965 17.3414 8.51019 17.7839C9.54694 18.2254 10.6346 18.5411 11.7277 18.5455C12.8408 18.5753 13.9713 18.4225 15.0681 18.1728C16.1688 17.9193 17.2413 17.5374 18.2949 17.0906C18.4324 17.0315 18.5922 17.096 18.6507 17.2336C18.7049 17.3609 18.654 17.5071 18.537 17.5754C17.5149 18.1652 16.4093 18.6224 15.2577 18.9322C14.1029 19.2421 12.9101 19.3775 11.7028 19.358C10.4699 19.2935 9.28965 18.9181 8.2334 18.3716C7.17444 17.8224 6.21298 17.1312 5.33494 16.3582C5.27861 16.3084 5.27319 16.2228 5.32248 16.1665C5.36798 16.1161 5.44273 16.1069 5.49798 16.1416Z" fill="white"/>
<path id="Vector_6" d="M12.1874 14.625H11.9686C11.3424 14.625 10.8333 14.1158 10.8333 13.4897V11.375H11.3749V13.4897C11.3749 13.8168 11.6414 14.0833 11.9686 14.0833H12.1874C12.514 14.0833 12.9999 13.5975 12.9999 13.2708V12.7292H13.5416V13.2708C13.5416 13.9035 12.8201 14.625 12.1874 14.625Z" fill="white"/>
<path id="Vector_7" d="M6.49992 11.375H5.95825V14.625H6.49992V11.375Z" fill="white"/>
<path id="Vector_8" d="M6.17015 12.5722C6.15878 12.3084 6.24977 12.0896 6.37165 11.8913C6.43502 11.7922 6.5049 11.6974 6.60348 11.608C6.7129 11.5154 6.83857 11.4547 6.96748 11.4136C7.50048 11.2554 8.05678 11.5788 8.28807 12.0614C8.40886 12.3057 8.39748 12.5998 8.39586 12.7786V13.3939V14.6251H7.85419V13.3939V12.7786C7.85528 12.5505 7.85853 12.4189 7.79569 12.2878C7.68248 12.0181 7.34828 11.8984 7.07257 11.9065C6.83098 11.8962 6.50761 12.2802 6.44044 12.5722H6.17015Z" fill="white"/>
<path id="Vector_9" d="M7.98949 12.5722C7.97811 12.3084 8.06911 12.0896 8.19099 11.8913C8.25436 11.7922 8.32424 11.6974 8.42282 11.608C8.53224 11.5154 8.6579 11.4547 8.78682 11.4136C9.31982 11.2554 9.87611 11.5788 10.1074 12.0614C10.2282 12.3057 10.2168 12.5998 10.2152 12.7786V13.3939V14.6251H9.67353V13.3939V12.7786C9.67461 12.5505 9.67786 12.4189 9.61503 12.2878C9.50182 12.0181 9.16761 11.8984 8.8919 11.9065C8.65032 11.8962 8.32694 12.2802 8.25978 12.5722H7.98949Z" fill="white"/>
<path id="Vector_10" d="M13.5417 11.375H13V14.625H13.5417V11.375Z" fill="white"/>
<path id="Vector_11" d="M17.3334 11.375H16.7917V14.625H17.3334V11.375Z" fill="white"/>
<path id="Vector_12" d="M17.0624 10.8333C17.3616 10.8333 17.6041 10.5908 17.6041 10.2917C17.6041 9.99251 17.3616 9.75 17.0624 9.75C16.7633 9.75 16.5208 9.99251 16.5208 10.2917C16.5208 10.5908 16.7633 10.8333 17.0624 10.8333Z" fill="white"/>
<path id="Vector_13" d="M18.4167 12.7942V13.2058C18.4167 13.6879 18.8121 14.0833 19.2942 14.0833C19.5271 14.0833 19.7492 13.9913 19.9171 13.8288L20.0417 13.7042V14.4083C19.8196 14.5492 19.565 14.625 19.2942 14.625C18.5142 14.625 17.875 13.9858 17.875 13.2058V12.7942C17.875 12.0142 18.5142 11.375 19.2942 11.375C19.565 11.375 19.8196 11.4508 20.0417 11.5917V12.2958L19.9171 12.1712C19.7492 12.0087 19.5271 11.9167 19.2942 11.9167C18.8121 11.9167 18.4167 12.3121 18.4167 12.7942Z" fill="white"/>
<path id="Vector_14" d="M14.7576 11.8922C14.7035 11.9302 14.6249 12.0412 14.6249 12.1875C14.6249 12.5016 14.7983 12.5937 15.2533 12.7454C15.6758 12.8808 16.2499 13.0758 16.2499 13.8125C16.2499 14.0941 16.1416 14.327 15.9303 14.4895C15.6649 14.6954 15.2641 14.7604 14.8795 14.7604C14.587 14.7604 14.2945 14.7225 14.0833 14.6845V14.132C14.5924 14.235 15.3183 14.2837 15.5945 14.0616C15.6487 14.0237 15.7083 13.9587 15.7083 13.8125C15.7083 13.4983 15.5349 13.4062 15.0799 13.2545C14.6574 13.1191 14.0833 12.9241 14.0833 12.1875C14.0833 11.9058 14.1916 11.6729 14.4028 11.5104C14.8741 11.142 15.6525 11.2401 16.1324 11.4215V11.974C15.6308 11.6848 15.0339 11.6702 14.7576 11.8922Z" fill="white"/>
</g>
</svg>
