<svg width="800" height="800" viewBox="0 0 800 800" fill="none" xmlns="http://www.w3.org/2000/svg">
<g clip-path="url(#clip0_14_2)">
<path d="M488.933 800C360.367 800 257.767 698.7 257.767 567.533C257.582 509.453 279.126 453.403 318.167 410.4L161.033 567.533L78.5667 485.067L255.867 309.733C279.867 285.733 292.2 254.533 292.2 220.133V0H408.433V220.133C408.433 287.667 384.433 344.8 337.667 391.567L332.467 396.767C375.239 357.784 431.062 336.235 488.933 336.367C620.767 336.367 721.433 440.9 721.433 567.533C721.57 598.102 715.649 628.396 704.013 656.664C692.377 684.932 675.256 710.615 653.639 732.229C632.021 753.843 606.336 770.961 578.066 782.593C549.796 794.225 519.502 800.141 488.933 800ZM488.933 442.867C418.167 442.867 362.967 501.3 362.967 567.533C362.967 635.7 418.8 693.533 488.967 693.533C522.539 693.658 554.79 680.463 578.647 656.843C602.505 633.222 616.022 601.105 616.233 567.533C616.233 498.7 559.067 442.867 488.933 442.867Z" fill="#01FF95"/>
</g>
<defs>
<clipPath id="clip0_14_2">
<rect width="800" height="800" fill="white"/>
</clipPath>
</defs>
</svg>
