<svg width="30" height="24" viewBox="0 0 30 24" fill="none" xmlns="http://www.w3.org/2000/svg">
<g id="soundcloud 2">
<path id="Vector" d="M6.13931 12.0106L6.38574 14.7735L6.13931 17.6767C6.12657 17.783 6.04584 17.8637 5.95237 17.8637C5.8589 17.8637 5.77392 17.783 5.77392 17.6767L5.536 14.7735L5.77392 12.0106C5.77392 11.9171 5.85465 11.8321 5.95237 11.8321C6.04584 11.8321 6.12657 11.9171 6.13931 12.0106ZM7.04854 10.0723C6.92957 10.0723 6.84885 10.1659 6.8361 10.2849L6.62366 14.7735L6.8361 17.6767C6.84885 17.7957 6.92957 17.8892 7.04854 17.8892C7.15475 17.8892 7.24823 17.7957 7.24823 17.6767L7.49465 14.7735L7.24823 10.2849C7.24823 10.1659 7.15475 10.0723 7.04854 10.0723ZM8.13196 9.04794C8.00025 9.04794 7.90677 9.14145 7.89403 9.27322L7.70709 14.799L7.89403 17.681C7.90677 17.8127 8.00025 17.9063 8.13196 17.9063C8.25092 17.9063 8.35714 17.8127 8.35714 17.681L8.58232 14.799L8.35714 9.27322C8.35714 9.14145 8.25092 9.04794 8.13196 9.04794ZM1.71216 13.154C1.65268 13.154 1.61869 13.2008 1.60594 13.2603L1.40625 14.7735L1.60594 16.2613C1.61869 16.3208 1.65268 16.3675 1.71216 16.3675C1.77164 16.3675 1.80563 16.3208 1.81837 16.2613L2.0563 14.7735L1.81837 13.2603C1.80563 13.2008 1.77164 13.154 1.71216 13.154ZM2.71485 12.2232C2.65537 12.2232 2.60863 12.2699 2.60863 12.3294L2.33672 14.7735L2.60863 17.1581C2.60863 17.2304 2.65537 17.2772 2.71485 17.2772C2.77433 17.2772 2.82107 17.2304 2.83382 17.1709L3.13972 14.7735L2.83382 12.3294C2.82107 12.2699 2.77433 12.2232 2.71485 12.2232ZM3.78978 11.7386C3.71755 11.7386 3.65807 11.7981 3.64957 11.8789L3.40314 14.7735L3.64957 17.5705C3.66231 17.6427 3.7218 17.7022 3.78978 17.7022C3.862 17.7022 3.92149 17.6427 3.92149 17.5705L4.21465 14.7735L3.92149 11.8789C3.92149 11.7981 3.862 11.7386 3.78978 11.7386ZM4.8647 11.6451C4.78397 11.6451 4.71175 11.7046 4.71175 11.7981L4.46532 14.7735L4.71175 17.6555C4.71175 17.749 4.78397 17.8085 4.8647 17.8085C4.94542 17.8085 5.01765 17.749 5.0304 17.6555L5.30232 14.7735L5.0304 11.7981C5.01765 11.7046 4.94542 11.6451 4.8647 11.6451ZM15.1211 6.93112C15.0743 6.89712 15.0021 6.87162 14.9426 6.87162C14.8492 6.87162 14.7642 6.90562 14.7047 6.95238C14.624 7.02464 14.573 7.1309 14.5645 7.23717V7.27117L14.4243 14.782L14.4965 16.1635L14.5688 17.5109C14.5815 17.7107 14.7472 17.8765 14.9469 17.8765C15.1466 17.8765 15.3123 17.7107 15.3123 17.5109L15.478 14.782L15.3123 7.23717C15.2953 7.10965 15.2273 6.99063 15.1211 6.93112ZM13.9867 7.58147C13.9272 7.54747 13.8677 7.52196 13.7997 7.52196C13.7318 7.52196 13.668 7.54747 13.6128 7.58147C13.5193 7.64098 13.4598 7.74725 13.4598 7.86626L13.4471 7.93852L13.3281 14.7735C13.3281 14.7735 13.3281 14.7863 13.4598 17.5619V17.5747C13.4598 17.647 13.4853 17.715 13.5321 17.7745C13.6043 17.8552 13.6978 17.9063 13.804 17.9063C13.8975 17.9063 13.9824 17.8595 14.0419 17.8C14.1141 17.7405 14.1481 17.6597 14.1481 17.5619L14.1609 17.2772L14.2926 14.7863L14.1524 7.86626C14.1396 7.74725 14.0801 7.64098 13.9867 7.58147ZM9.25362 8.53786C9.12191 8.53786 9.00719 8.65688 9.00719 8.79715L8.82025 14.7735L9.00719 17.63C9.01994 17.7702 9.12615 17.8765 9.25362 17.8765C9.39382 17.8765 9.50004 17.7702 9.51279 17.63L9.72522 14.7735L9.51279 8.79715C9.50429 8.65688 9.39807 8.53786 9.25362 8.53786ZM25.2585 11.2073C24.7996 11.2073 24.362 11.3008 23.9584 11.4665C23.6865 8.4571 21.1627 6.09375 18.0824 6.09375C17.3262 6.09375 16.5954 6.23402 15.9453 6.49331C15.6862 6.58682 15.6139 6.68034 15.6139 6.88437V17.4982C15.6139 17.7107 15.7796 17.8637 15.9793 17.8892H25.2543C27.0939 17.8892 28.5937 16.4015 28.5937 14.561C28.598 12.7077 27.0982 11.2073 25.2585 11.2073ZM12.6526 8.64413C12.4741 8.64413 12.3339 8.7844 12.3212 8.97568L12.181 14.7863L12.3212 17.5747C12.3339 17.7532 12.4741 17.8935 12.6526 17.8935C12.831 17.8935 12.9712 17.7532 12.9712 17.5747L13.1369 14.7863L12.9712 8.97568C12.9585 8.7844 12.831 8.64413 12.6526 8.64413ZM10.3753 8.31258C10.2351 8.31258 10.1034 8.44435 10.1034 8.59737L9.93766 14.7735L10.1034 17.6172C10.1161 17.7702 10.2351 17.8892 10.3753 17.8892C10.5282 17.8892 10.6472 17.7702 10.6599 17.6172L10.8469 14.7735L10.6599 8.59737C10.6472 8.44435 10.5282 8.31258 10.3753 8.31258ZM11.5097 8.4571C11.344 8.4571 11.2165 8.58887 11.2165 8.75039L11.0508 14.7735L11.2165 17.596C11.2293 17.7617 11.3482 17.8892 11.5097 17.8892C11.6711 17.8892 11.8028 17.7575 11.8028 17.596L11.9813 14.7735L11.8028 8.75039C11.8028 8.58462 11.6754 8.4571 11.5097 8.4571Z" fill="#F7F1F0"/>
</g>
</svg>
