<svg width="20" height="20" viewBox="0 0 20 20" fill="none" xmlns="http://www.w3.org/2000/svg">
<path id="Vector" d="M11.0798 5.79835C8.92294 5.87821 3.57283 6.48599 3.57283 11.0111C3.57283 15.8689 9.69799 16.0686 11.6999 12.9276C11.9877 13.3801 13.2677 14.5913 13.7061 15.0039L16.2217 12.5195C16.2217 12.5195 14.7912 11.3971 14.7912 10.1771V3.65114C14.7912 2.52874 13.7061 0 9.81757 0C5.92015 0 3.85185 2.44001 3.85185 4.62715L7.10709 4.92882C7.829 2.73281 9.50755 2.73281 9.50755 2.73281C11.3101 2.72838 11.0798 4.05485 11.0798 5.79835V5.79835ZM11.0798 9.64913C11.0798 13.1982 7.35068 12.6659 7.35068 10.4122C7.35068 8.31822 9.58727 7.89676 11.0798 7.84796V9.64913V9.64913ZM17.1031 16.9026C16.7621 17.3463 14.0029 19.875 9.37468 19.875C4.74649 19.875 1.20338 16.703 0.118299 15.3943C-0.182865 15.0527 0.162588 14.8929 0.361888 15.026C3.60827 17.0002 8.67935 20.2521 16.8595 16.3703C17.1917 16.2061 17.4486 16.459 17.1031 16.9026ZM18.8658 17.0002C18.5779 17.7012 18.1572 18.1892 17.9269 18.3755C17.6833 18.5751 17.5061 18.4953 17.639 18.2069C17.7719 17.9186 18.4938 16.144 18.2015 15.7669C17.9136 15.3987 16.5628 15.5761 16.0756 15.6249C15.5973 15.6693 15.4998 15.7137 15.4555 15.6116C15.3537 15.3588 16.4166 14.924 17.1164 14.8353C17.8117 14.7554 18.9322 14.7998 19.1537 15.0881C19.3175 15.3144 19.1537 16.2904 18.8658 17.0002Z" fill="#F7F1F0"/>
</svg>
