<svg width="18" height="21" viewBox="0 0 18 21" fill="none" xmlns="http://www.w3.org/2000/svg">
<g id="instagram 1" clip-path="url(#clip0_337_21)">
<path id="Vector" d="M9.00398 5.7833C6.44862 5.7833 4.38746 7.8874 4.38746 10.496C4.38746 13.1046 6.44862 15.2087 9.00398 15.2087C11.5593 15.2087 13.6205 13.1046 13.6205 10.496C13.6205 7.8874 11.5593 5.7833 9.00398 5.7833ZM9.00398 13.5599C7.35264 13.5599 6.00264 12.1858 6.00264 10.496C6.00264 8.80615 7.34862 7.43213 9.00398 7.43213C10.6593 7.43213 12.0053 8.80615 12.0053 10.496C12.0053 12.1858 10.6553 13.5599 9.00398 13.5599ZM14.8861 5.59053C14.8861 6.20166 14.404 6.68975 13.8093 6.68975C13.2107 6.68975 12.7326 6.19756 12.7326 5.59053C12.7326 4.9835 13.2147 4.49131 13.8093 4.49131C14.404 4.49131 14.8861 4.9835 14.8861 5.59053ZM17.9437 6.70615C17.8754 5.23369 17.5459 3.92939 16.4892 2.85478C15.4366 1.78018 14.1589 1.44385 12.7165 1.37002C11.2299 1.28389 6.77407 1.28389 5.28746 1.37002C3.84907 1.43975 2.57139 1.77607 1.51469 2.85068C0.457997 3.92529 0.132551 5.22959 0.0602295 6.70205C-0.0241455 8.21963 -0.0241455 12.7683 0.0602295 14.2858C0.128533 15.7583 0.457997 17.0626 1.51469 18.1372C2.57139 19.2118 3.84505 19.5481 5.28746 19.622C6.77407 19.7081 11.2299 19.7081 12.7165 19.622C14.1589 19.5522 15.4366 19.2159 16.4892 18.1372C17.5419 17.0626 17.8714 15.7583 17.9437 14.2858C18.0281 12.7683 18.0281 8.22373 17.9437 6.70615ZM16.0232 15.9142C15.7098 16.7181 15.1031 17.3374 14.3116 17.6614C13.1263 18.1413 10.3138 18.0306 9.00398 18.0306C7.69416 18.0306 4.87764 18.1372 3.69639 17.6614C2.90889 17.3415 2.30219 16.7222 1.98478 15.9142C1.51469 14.7042 1.62318 11.8331 1.62318 10.496C1.62318 9.15889 1.51871 6.28369 1.98478 5.07783C2.29818 4.27393 2.90487 3.65459 3.69639 3.33057C4.88166 2.85068 7.69416 2.96143 9.00398 2.96143C10.3138 2.96143 13.1303 2.85478 14.3116 3.33057C15.0991 3.65049 15.7058 4.26982 16.0232 5.07783C16.4933 6.28779 16.3848 9.15889 16.3848 10.496C16.3848 11.8331 16.4933 14.7083 16.0232 15.9142Z" fill="white"/>
</g>
<defs>
<clipPath id="clip0_337_21">
<rect width="18" height="21" fill="white"/>
</clipPath>
</defs>
</svg>
