<svg width="21" height="20" viewBox="0 0 21 20" fill="none" xmlns="http://www.w3.org/2000/svg">
<g id="Logo">
<rect id="Rectangle 122" x="1.24341" y="2.29883" width="16.9093" height="15.5416" rx="7.77081" fill="white"/>
<path id="Vector" d="M20.0674 10.024C20.0659 10.0217 20.0622 10.0228 20.0622 10.0256C20.0624 11.874 20.1035 13.7174 20.0622 15.5607C20.0766 16.4878 19.7871 17.394 19.2379 18.1411C18.6888 18.8883 17.9102 19.4353 17.021 19.6983C16.5065 19.8475 15.9741 19.9257 15.4384 19.9309C11.7508 19.9774 8.05801 20.081 4.37555 19.8844C1.72232 19.7448 0.124128 18.1363 0.0620639 15.5089C-0.020688 11.8368 -0.020688 8.16295 0.0620639 4.48739C0.124128 1.80313 1.82062 0.122204 4.53591 0.06014C8.22354 -0.0174398 11.9163 -0.0226118 15.6039 0.06014C18.3658 0.122204 20.0105 1.86532 20.0726 4.61164C20.1191 6.41353 20.0727 8.22572 20.0726 10.0225C20.0726 10.0253 20.069 10.0264 20.0674 10.024V10.024ZM14.7247 8.46462C14.7247 6.94406 14.7247 5.42358 14.7247 3.90302C14.7247 3.11688 14.5644 2.9771 13.8144 3.12192C11.9146 3.5012 10.0182 3.88404 8.12524 4.27021C7.1736 4.46675 7.12708 4.52356 7.12708 5.48038C7.12708 7.71985 7.12708 9.95932 7.12708 12.204C7.12708 13.0573 7.06502 13.1245 6.22198 13.3055C5.81864 13.3762 5.42102 13.4765 5.0324 13.6056C4.6665 13.726 4.36012 13.9813 4.17566 14.3195C3.99121 14.6577 3.94255 15.0533 4.03942 15.4261C4.12877 15.8119 4.36216 16.1491 4.69198 16.3683C5.0218 16.5876 5.42304 16.6724 5.81338 16.6055C7.30291 16.4296 7.88217 15.7623 7.88217 14.2417C7.88217 12.1729 7.88217 10.1353 7.88217 8.08203C7.88217 7.6631 8.00105 7.46651 8.44584 7.38376C10.0647 7.08378 11.6784 6.75272 13.2869 6.41654C13.7368 6.32344 13.9437 6.41654 13.9386 6.93374C13.9386 8.325 13.9386 9.72136 13.9386 11.1178C13.95 11.2097 13.9425 11.3029 13.9166 11.3918C13.8906 11.4807 13.8468 11.5632 13.7877 11.6345C13.7285 11.7057 13.6554 11.7643 13.5729 11.8062C13.4903 11.8481 13.4 11.8725 13.3076 11.8782C12.776 11.9436 12.2547 12.0756 11.756 12.2711C11.4256 12.4225 11.1588 12.6852 11.0022 13.0131C10.8455 13.341 10.809 13.7136 10.8989 14.0657C10.9887 14.4178 11.1993 14.727 11.494 14.9397C11.7886 15.1524 12.1486 15.2551 12.5111 15.2296C14.0006 15.1831 14.7454 14.4382 14.7506 12.9591C14.7558 11.4799 14.7247 9.95945 14.7247 8.45957V8.46462Z" fill="url(#paint0_linear_414_26)"/>
</g>
<defs>
<linearGradient id="paint0_linear_414_26" x1="10.0466" y1="0" x2="10.0466" y2="20" gradientUnits="userSpaceOnUse">
<stop stop-color="#FB5870"/>
<stop offset="1" stop-color="#FA2C44"/>
</linearGradient>
</defs>
</svg>
