<svg width="26" height="26" viewBox="0 0 26 26" fill="none" xmlns="http://www.w3.org/2000/svg">
<g id="icons8-deezer 1">
<path id="Vector" d="M5.95833 17.875H1.625V20.5833H5.95833V17.875Z" fill="#F98613"/>
<path id="Vector_2" d="M11.9166 9.20825H7.58325V11.9166H11.9166V9.20825Z" fill="#F1BC18"/>
<path id="Vector_3" d="M11.9166 13.5417H7.58325V16.2501H11.9166V13.5417Z" fill="#ED6630"/>
<path id="Vector_4" d="M11.9166 17.875H7.58325V20.5833H11.9166V17.875Z" fill="#D64D45"/>
<path id="Vector_5" d="M17.8751 13.5417H13.5417V16.2501H17.8751V13.5417Z" fill="#BD3369"/>
<path id="Vector_6" d="M17.8751 17.875H13.5417V20.5833H17.8751V17.875Z" fill="#6D2F87"/>
<path id="Vector_7" d="M23.8333 4.875H19.5V7.58333H23.8333V4.875Z" fill="#19AA5C"/>
<path id="Vector_8" d="M23.8333 9.20825H19.5V11.9166H23.8333V9.20825Z" fill="#129B8A"/>
<path id="Vector_9" d="M23.8333 13.5417H19.5V16.2501H23.8333V13.5417Z" fill="#1084B6"/>
<path id="Vector_10" d="M23.8333 17.875H19.5V20.5833H23.8333V17.875Z" fill="#1168CF"/>
</g>
</svg>
