<svg width="20" height="20" viewBox="0 0 20 20" fill="none" xmlns="http://www.w3.org/2000/svg">
<g id="Yandex_Music_icon 1" clip-path="url(#clip0_414_53)">
<path id="Vector" d="M4.11931 2.04424C5.59069 0.953959 7.32974 0.294874 9.14222 0.131104V3.13032C7.97061 3.28222 6.85167 3.73078 5.89455 4.44001C4.69609 5.32806 3.81474 6.57775 3.38054 8.00479C2.94632 9.43182 2.98222 10.9606 3.48294 12.3656C3.98365 13.7707 4.92267 14.9778 6.16151 15.8086C7.40033 16.6393 8.87336 17.05 10.3633 16.9801C11.8533 16.91 13.2813 16.363 14.4368 15.4197C15.5922 14.4763 16.4139 13.1866 16.7807 11.7408C17.0366 10.7323 17.0616 9.68509 16.8612 8.6755L19.3797 6.65075L19.3781 6.63442C20.0579 8.50458 20.1618 10.5392 19.671 12.474C19.147 14.5395 17.9732 16.3819 16.3225 17.7295C14.6719 19.077 12.6319 19.8585 10.5033 19.9585C8.37477 20.0585 6.27043 19.4718 4.50067 18.2849C2.73092 17.0981 1.38946 15.3739 0.674151 13.3666C-0.0411575 11.3594 -0.092442 9.17539 0.527861 7.13678C1.14817 5.09817 2.40721 3.31288 4.11931 2.04424Z" fill="#FCCA00"/>
<path id="Vector_2" d="M17.4806 3.44404L17.4911 3.47046L15.8081 6.14358C15.196 5.23658 14.3758 4.48164 13.416 3.94727V10.0304C13.416 11.8968 11.903 13.4098 10.0366 13.4098C8.17022 13.4098 6.65723 11.8968 6.65723 10.0304C6.65723 8.16406 8.17022 6.65106 10.0366 6.65106C10.7361 6.65106 11.3859 6.86358 11.9251 7.22755V0.270264C14.1191 0.692269 16.0564 1.8357 17.4806 3.44404Z" fill="#FC3F1D"/>
</g>
<defs>
<clipPath id="clip0_414_53">
<rect width="20" height="20" fill="white"/>
</clipPath>
</defs>
</svg>
